<svg xmlns="http://www.w3.org/2000/svg" width="1200" height="300" viewBox="0 0 1200 300" font-family="ui-sans-serif,-apple-system,Segoe UI,Helvetica,Arial,sans-serif">
<rect width="1200" height="300" rx="16" fill="#0d1117"/>
<path d="M170.00 64.00 L174.94 32.10 L181.55 35.53 L202.65 69.51 L204.98 71.44 L222.47 44.31 L227.11 50.12 L232.57 89.75 L233.91 92.45 L260.92 74.78 L262.79 81.99 L251.66 120.41 L251.79 123.42 L283.65 118.27 L282.43 125.61 L256.64 156.18 L255.53 158.99 L286.73 167.24 L282.64 173.45 L246.64 190.89 L244.48 193.00 L269.63 213.23 L263.36 217.23 L223.38 218.52 L220.55 219.58 L235.30 248.28 L227.94 249.39 L190.90 234.31 L187.88 234.12 L189.68 266.35 L182.51 264.37 L154.80 235.52 L152.12 234.12 L140.65 264.29 L134.91 259.57 L121.33 221.94 L119.45 219.58 L96.70 242.48 L93.38 235.82 L96.27 195.93 L95.52 193.00 L65.43 204.67 L65.09 197.23 L83.97 161.97 L84.47 158.99 L52.23 157.41 L54.95 150.48 L86.54 125.94 L88.21 123.42 L59.40 108.87 L64.70 103.65 L103.54 94.07 L106.09 92.45 L85.69 67.44 L92.66 64.82 L132.03 71.88 L135.02 71.44 L126.56 40.29 L133.99 40.73 L167.09 63.19 Z" fill="#d4a656"/>
<circle cx="170" cy="150" r="68.80" fill="#0d1117"/>
<line x1="170" y1="150" x2="170.00" y2="79.48" stroke="#d4a656" stroke-width="9.46" stroke-linecap="round"/>
<line x1="170" y1="150" x2="237.07" y2="128.21" stroke="#d4a656" stroke-width="9.46" stroke-linecap="round"/>
<line x1="170" y1="150" x2="211.45" y2="207.05" stroke="#d4a656" stroke-width="9.46" stroke-linecap="round"/>
<line x1="170" y1="150" x2="128.55" y2="207.05" stroke="#d4a656" stroke-width="9.46" stroke-linecap="round"/>
<line x1="170" y1="150" x2="102.93" y2="128.21" stroke="#d4a656" stroke-width="9.46" stroke-linecap="round"/>
<circle cx="170" cy="150" r="18.92" fill="#d4a656"/>
<circle cx="170" cy="150" r="6.88" fill="#0d1117"/>
<text x="330" y="140" font-size="72" font-weight="700" fill="#e6edf3" letter-spacing="-1.5">Escapement</text>
<text x="333" y="184" font-size="22" fill="#9198a1">Tickless EDF and DM real-time kernel for microcontrollers</text>
<rect x="333" y="212" width="161" height="34" rx="17" fill="#161b22" stroke="#30363d"/>
<text x="413" y="234" font-size="16" fill="#e6edf3" text-anchor="middle">power-aware DVFS</text>
<rect x="505.8" y="212" width="103" height="34" rx="17" fill="#161b22" stroke="#30363d"/>
<text x="557" y="234" font-size="16" fill="#e6edf3" text-anchor="middle">lock-free</text>
<rect x="620.5" y="212" width="152" height="34" rx="17" fill="#161b22" stroke="#30363d"/>
<text x="697" y="234" font-size="16" fill="#e6edf3" text-anchor="middle">Cortex-M0+ · M4</text>
<rect x="785.0" y="212" width="70" height="34" rx="17" fill="#161b22" stroke="#30363d"/>
<text x="820" y="234" font-size="16" fill="#e6edf3" text-anchor="middle">~5 KB</text>
<rect x="866.5" y="212" width="186" height="34" rx="17" fill="#161b22" stroke="#30363d"/>
<text x="959" y="234" font-size="16" fill="#e6edf3" text-anchor="middle">verified on silicon</text>
</svg>
